<?xml version="1.0" encoding="UTF-8" standalone="no"?>
<svg
   version="1.0"
   width="124.000000pt"
   height="124.000000pt"
   viewBox="0 0 124.000000 124.000000"
   preserveAspectRatio="xMidYMid meet"
   id="svg15"
   sodipodi:docname="QR_145568.svg"
   inkscape:version="1.4.2 (f4327f4, 2025-05-13)"
   xmlns:inkscape="http://www.inkscape.org/namespaces/inkscape"
   xmlns:sodipodi="http://sodipodi.sourceforge.net/DTD/sodipodi-0.dtd"
   xmlns="http://www.w3.org/2000/svg"
   xmlns:svg="http://www.w3.org/2000/svg">
  <defs
     id="defs15" />
  <sodipodi:namedview
     id="namedview15"
     pagecolor="#ffffff"
     bordercolor="#000000"
     borderopacity="0.25"
     inkscape:showpageshadow="2"
     inkscape:pageopacity="0.0"
     inkscape:pagecheckerboard="0"
     inkscape:deskcolor="#d1d1d1"
     inkscape:document-units="pt"
     inkscape:zoom="7.3487903"
     inkscape:cx="82.734705"
     inkscape:cy="104.43896"
     inkscape:window-width="1187"
     inkscape:window-height="1401"
     inkscape:window-x="1364"
     inkscape:window-y="0"
     inkscape:window-maximized="0"
     inkscape:current-layer="svg15" />
  <metadata
     id="metadata1">
Created by potrace 1.16, written by Peter Selinger 2001-2019
</metadata>
  <g
     id="g15"
     transform="matrix(0.3,0,0,0.3,43.80823,43.910288)">
    <rect
       x="0"
       y="0"
       width="124"
       height="124"
       fill="#ffffff"
       id="rect1" />
    <g
       transform="matrix(0.033333,0,0,-0.033333,0,124)"
       fill="#000000"
       stroke="none"
       id="g14">
      <path
         d="m 360,2940 v -420 h 420 420 v 420 420 H 780 360 Z m 720,0 V 2640 H 780 480 v 300 300 h 300 300 z"
         id="path1" />
      <path
         d="m 600,2940 v -180 h 180 180 v 180 180 H 780 600 Z"
         id="path2" />
      <path
         d="m 1560,3300 v -60 h -60 -60 v -60 -60 h -60 -60 v -60 -60 h 60 60 v -120 -120 h 60 60 v -120 -120 h 60 60 v 60 60 h 60 60 v -120 -120 h 60 60 v -120 -120 h -60 -60 v -60 -60 h -60 -60 v 60 60 h -60 -60 v 60 60 h -60 -60 v 180 180 h -60 -60 V 2520 2400 H 1080 840 v -60 -60 h 300 300 v -60 -60 h 60 60 v -60 -60 h -60 -60 v -60 -60 h 60 60 v -120 -120 h -60 -60 v 60 60 h -60 -60 v 60 60 h -120 -120 v 60 60 h 120 120 v 60 60 H 1140 960 V 2040 1920 H 780 600 v -60 -60 h -60 -60 v -60 -60 h -60 -60 v -60 -60 h 60 60 v -60 -60 h -60 -60 v -60 -60 h 60 60 v 60 60 h 60 60 v -60 -60 h 60 60 v 60 60 h 60 60 v -60 -60 h 60 60 v 120 120 h 120 120 v -60 -60 h -60 -60 v -60 -60 h 120 120 V 1080 840 h 120 120 v 60 60 h 60 60 v -60 -60 h 60 60 v -60 -60 h 60 60 v -60 -60 h -120 -120 v 60 60 h -60 -60 V 600 480 h -60 -60 v 120 120 h -60 -60 V 540 360 h 360 360 v 60 60 h 60 60 v -60 -60 h 120 120 v 60 60 h 60 60 v -60 -60 h 120 120 v 60 60 h 120 120 v 60 60 h -60 -60 v 60 60 h 120 120 v 60 60 h 60 60 v 120 120 h 60 60 v 120 120 H 3240 3120 V 1080 840 h -60 -60 v 300 300 h -60 -60 v 60 60 h -60 -60 v 60 60 h -60 -60 v 120 120 h -120 -120 v 120 120 h 120 120 v -60 -60 h 60 60 v 60 60 h -60 -60 v 120 120 h -180 -180 v -240 -240 h -60 -60 v -60 -60 h 180 180 v -60 -60 h -120 -120 v -60 -60 h 60 60 v -60 -60 h -60 -60 v -60 -60 h -60 -60 v -120 -120 h -180 -180 v -60 -60 h -60 -60 v 120 120 h -120 -120 v 180 180 h 60 60 v -60 -60 h 120 120 v 60 60 h 60 60 v -120 -120 h 60 60 v 60 60 h 60 60 v 60 60 h -60 -60 v 60 60 h -120 -120 v -60 -60 h -120 -120 v 60 60 h 60 60 v 60 60 h 60 60 v 120 120 h 60 60 v -120 -120 h 60 60 v 120 120 h -60 -60 v 60 60 h 120 120 v 60 60 h -60 -60 v 60 60 h 60 60 v 120 120 h 60 60 v -60 -60 h 60 60 v 120 120 h -60 -60 v 60 60 h -240 -240 v -60 -60 h -120 -120 v 120 120 h -60 -60 v 60 60 h 60 60 v 60 60 h 60 60 v 60 60 h -60 -60 z m 480,-660 v -120 h -60 -60 v 60 60 h -60 -60 v 60 60 h 120 120 z M 840,1740 v -60 h 60 60 v -60 -60 h -60 -60 v 60 60 h -60 -60 v -60 -60 H 600 480 v 60 60 h 60 60 v 60 60 h 120 120 z m 480,0 v -60 h -120 -120 v 60 60 h 120 120 z m 1440,-240 v -60 h -120 -120 v 60 60 h 120 120 z m 0,-360 V 960 h -180 -180 v 180 180 h 180 180 z M 2280,960 V 840 h 180 180 v -60 -60 h 60 60 V 600 480 h -60 -60 v 60 60 h -120 -120 v 60 60 h -120 -120 v -60 -60 h 60 60 v -60 -60 h -60 -60 v 60 60 h -60 -60 v 60 60 h -60 -60 v 60 60 h 60 60 v 60 60 h 60 60 v 60 60 h 60 60 z"
         id="path3" />
      <path
         d="m 2520,1140 v -60 h 60 60 v 60 60 h -60 -60 z"
         id="path4" />
      <path
         d="m 1920,3240 v -120 h 120 120 v -60 -60 h 60 60 v 60 60 h 60 60 v 60 60 h -60 -60 v 60 60 h -180 -180 z"
         id="path5" />
      <path
         d="m 2520,2940 v -420 h 420 420 v 420 420 h -420 -420 z m 720,0 v -300 h -300 -300 v 300 300 h 300 300 z"
         id="path6" />
      <path
         d="m 2760,2940 v -180 h 180 180 v 180 180 h -180 -180 z"
         id="path7" />
      <path
         d="m 1680,3060 v -60 h 60 60 v 60 60 h -60 -60 z"
         id="path8" />
      <path
         d="m 360,2220 v -180 h 180 180 v 180 180 H 540 360 Z m 240,0 v -60 h -60 -60 v 60 60 h 60 60 z"
         id="path9" />
      <path
         d="m 3000,2340 v -60 h 60 60 v 60 60 h -60 -60 z"
         id="path10" />
      <path
         d="m 3240,2220 v -60 h -120 -120 v -60 -60 h 60 60 v -120 -120 h 60 60 v -60 -60 h -120 -120 v 120 120 h -60 -60 v -120 -120 h 60 60 v -60 -60 h 60 60 v -60 -60 h 60 60 v 60 60 h 60 60 v 180 180 h -60 -60 v 60 60 h 60 60 v 120 120 h -60 -60 z"
         id="path11" />
      <path
         d="M 360,780 V 360 h 420 420 v 420 420 H 780 360 Z m 720,0 V 480 H 780 480 v 300 300 h 300 300 z"
         id="path12" />
      <path
         d="M 600,780 V 600 H 780 960 V 780 960 H 780 600 Z"
         id="path13" />
      <path
         d="m 3240,660 v -60 h -60 -60 V 480 360 h 120 120 v 60 60 h -60 -60 v 60 60 h 60 60 v 60 60 h -60 -60 z"
         id="path14" />
    </g>
  </g>
</svg>
